HIERARCHY
ROOT Hips
{
  OFFSET 50.0889 49.3973 -7.04331
  CHANNELS 6 Xposition Yposition Zposition Zrotation Xrotation Yrotation
  JOINT spine
  {
    OFFSET 0 6.24479 0.359107
    CHANNELS 3 Zrotation Xrotation Yrotation
    JOINT spine1
    {
      OFFSET 0 9.06941 0
      CHANNELS 3 Zrotation Xrotation Yrotation
      JOINT spine2
      {
        OFFSET 0 8.69014 0
        CHANNELS 3 Zrotation Xrotation Yrotation
        JOINT Neck
        {
          OFFSET 0 22.3112 1.06372
          CHANNELS 3 Zrotation Xrotation Yrotation
          JOINT Head
          {
            OFFSET 0 6.74081 0
            CHANNELS 3 Zrotation Xrotation Yrotation
            End Site
            {
              OFFSET 0 16.3165 -5.38097
            }
          }
        }
        JOINT RightShoulder
        {
          OFFSET -3.65916 9.38468 -0.509514
          CHANNELS 3 Zrotation Xrotation Yrotation
          JOINT RightArm
          {
            OFFSET 0 12.3089 0
            CHANNELS 3 Zrotation Xrotation Yrotation
            JOINT RightArmRoll
            {
              OFFSET 0 6.21375 0
              CHANNELS 3 Zrotation Xrotation Yrotation
              JOINT RightForeArm
              {
                OFFSET 0 18.0985 0
                CHANNELS 3 Zrotation Xrotation Yrotation
                JOINT RightForeArmRoll
                {
                  OFFSET 0 6.9728 0
                  CHANNELS 3 Zrotation Xrotation Yrotation
                  JOINT RightHand
                  {
                    OFFSET 0 13.9929 0
                    CHANNELS 3 Zrotation Xrotation Yrotation
                    End Site
                    {
                      OFFSET 0 0 0
                    }
                  }
                }
              }
            }
          }
        }
        JOINT LeftShoulder
        {
          OFFSET 3.65916 9.38468 -0.509514
          CHANNELS 3 Zrotation Xrotation Yrotation
          JOINT LeftArm
          {
            OFFSET 0 12.3089 0
            CHANNELS 3 Zrotation Xrotation Yrotation
            JOINT LeftArmRoll
            {
              OFFSET 0 6.21375 0
              CHANNELS 3 Zrotation Xrotation Yrotation
              JOINT LeftForeArm
              {
                OFFSET 0 18.0985 0
                CHANNELS 3 Zrotation Xrotation Yrotation
                JOINT LeftForeArmRoll
                {
                  OFFSET 0 6.97279 0
                  CHANNELS 3 Zrotation Xrotation Yrotation
                  JOINT LeftHand
                  {
                    OFFSET 0 13.9929 0
                    CHANNELS 3 Zrotation Xrotation Yrotation
                    End Site
                    {
                      OFFSET 0 0 0
                    }
                  }
                }
              }
            }
          }
        }
      }
    }
  }
  JOINT RightUpLeg
  {
    OFFSET -5.53515 -1.015 -0.851454
    CHANNELS 3 Zrotation Xrotation Yrotation
    JOINT RightUpLegRoll
    {
      OFFSET 0 16.4075 0
      CHANNELS 3 Zrotation Xrotation Yrotation
      JOINT RightLeg
      {
        OFFSET 0 -20.3181 0
        CHANNELS 3 Zrotation Xrotation Yrotation
        JOINT RightLegRoll
        {
          OFFSET 0 20.3846 0
          CHANNELS 3 Zrotation Xrotation Yrotation
          JOINT RightFoot
          {
            OFFSET 0 16.9668 0
            CHANNELS 3 Zrotation Xrotation Yrotation
            JOINT RightToeBase
            {
              OFFSET 0 14.1834 0
              CHANNELS 3 Zrotation Xrotation Yrotation
              End Site
              {
                OFFSET 0.0060118 6.8689 -0.791745
              }
            }
          }
        }
      }
    }
  }
  JOINT LeftUpLeg
  {
    OFFSET 5.53515 -1.015 -0.851454
    CHANNELS 3 Zrotation Xrotation Yrotation
    JOINT LeftUpLegRoll
    {
      OFFSET 0 16.4076 0
      CHANNELS 3 Zrotation Xrotation Yrotation
      JOINT LeftLeg
      {
        OFFSET 0 20.3181 0
        CHANNELS 3 Zrotation Xrotation Yrotation
        JOINT LeftLegRoll
        {
          OFFSET 0 20.5731 0
          CHANNELS 3 Zrotation Xrotation Yrotation
          JOINT LeftFoot
          {
            OFFSET 0 16.7783 0
            CHANNELS 3 Zrotation Xrotation Yrotation
            JOINT LeftToeBase
            {
              OFFSET 0 14.1834 0
              CHANNELS 3 Zrotation Xrotation Yrotation
              End Site
              {
                OFFSET -0.0269423 6.86889 -0.791746
              }
            }
          }
        }
      }
    }
  }
}
MOTION
Frames: 11
Frame Time: 0.00208333
49.334 84.2181 37.4117 -0.366029 -0.792158 -3.11853 -0.212851 -1.7094 -0.0720421 -0.426625 0.584196 -0.123092 -0.425367 2.22924 -0.115995 6.59742 11.6162 -2.8979 -2.65175 7.13435 -0.912866 71.9273 -2.83442 -2.82127 103.313 17.4193 8.48935 -1.56411e-006 3.4946e-007 8.63932e-006 10.7228 6.78266 -1.07 -7.60269e-006 -8.88278e-007 -3 8.0289 -4.95145 0.697695 -62.2413 -8.24052 5.18516 -112.639 10.2058 -15.526 -2.78299e-015 -1.59028e-015 -9.54166e-015 -1.30081 14.649 0.648704 -7.23787e-006 -3.2297e-007 3 -8.03011 -4.95139 -0.697647 179.476 5.39934 0.669135 -180 7.01554e-015 178.955 176.871 10.3113 179.608 -3.87951e-006 -1.63168e-006 0.194498 -20.2183 68.14 19.6639 8.13504 25.2327 -3.48712 -179.11 1.31207 -1.74827 4.54188e-006 -4.6773e-006 -1.13162 -1.76392 -13.8971 0.637277 3.07229e-007 -1.92166e-007 -0.351158 23.7933 72.7213 -24.587 -8.29511 27.3936 3.56308 
49.3361 84.211 37.4047 -0.365702 -0.778014 -3.12055 -0.213276 -1.70959 -0.07227 -0.42727 0.583821 -0.123858 -0.426003 2.22887 -0.116751 6.60343 11.6573 -2.91173 -2.62678 7.12636 -0.922216 71.9114 -2.82555 -2.81573 103.325 17.3418 8.58595 -1.56411e-006 3.4946e-007 8.63932e-006 10.6595 6.72486 -1.06446 -7.60269e-006 -8.88278e-007 -3 8.0289 -4.95145 0.697695 -62.2418 -8.24473 5.18764 -112.649 10.1604 -15.6047 -7.95139e-016 0 -0 -1.24087 14.5773 0.640442 -7.23787e-006 -3.2297e-007 3 -8.03011 -4.95139 -0.697647 179.479 5.44861 0.667006 -180 7.01554e-015 178.956 176.862 10.3455 179.611 -3.87951e-006 -1.63168e-006 0.195564 -20.2463 68.1584 19.6804 8.13504 25.2327 -3.48712 -179.112 1.33524 -1.74287 4.54188e-006 -4.6773e-006 -1.13151 -1.76392 -13.8979 0.637995 3.07229e-007 -1.92166e-007 -0.351158 23.7947 72.7201 -24.5864 -8.29458 27.3866 3.56195 
49.3592 84.2124 37.3941 -0.36531 -0.763993 -3.12239 -0.213688 -1.70981 -0.0724892 -0.427874 0.583374 -0.124632 -0.426598 2.22842 -0.117515 6.60875 11.6984 -2.92451 -2.60249 7.11953 -0.93074 71.8948 -2.8159 -2.80978 103.337 17.2644 8.68464 -1.56411e-006 3.4946e-007 8.63932e-006 10.5944 6.66491 -1.05872 -7.60269e-006 -8.88278e-007 -3 8.0289 -4.95145 0.697695 -62.2431 -8.24819 5.1897 -112.658 10.1156 -15.6861 5.1684e-015 0 -3.18055e-015 -1.17861 14.5049 0.631868 -7.23787e-006 -3.2297e-007 3 -8.03011 -4.95139 -0.697647 179.483 5.4989 0.665083 -180 7.01555e-015 178.956 176.852 10.3814 179.614 -3.87951e-006 -1.63168e-006 0.19667 -20.2756 68.1776 19.6975 8.13504 25.2327 -3.48712 -179.113 1.35817 -1.7377 4.54188e-006 -4.6773e-006 -1.13142 -1.76423 -13.8988 0.638656 3.07229e-007 -1.92166e-007 -0.351158 23.7969 72.7193 -24.5862 -8.29403 27.3793 3.56077 
49.3552 84.2235 37.3865 -0.364872 -0.750056 -3.12409 -0.214089 -1.71007 -0.0727025 -0.428448 0.582875 -0.125412 -0.427163 2.22792 -0.118286 6.61358 11.7395 -2.93655 -2.57867 7.11351 -0.938686 71.8778 -2.80571 -2.80353 103.35 17.1869 8.78477 -1.56411e-006 3.4946e-007 8.63932e-006 10.528 6.60345 -1.05283 -7.60269e-006 -8.88278e-007 -3 8.0289 -4.95145 0.697695 -62.2452 -8.25113 5.19146 -112.667 10.0712 -15.7694 2.78299e-015 0 -3.18055e-015 -1.11473 14.432 0.623078 -7.23787e-006 -3.2297e-007 3 -8.03011 -4.95139 -0.697647 179.486 5.54991 0.663303 -180 7.01555e-015 178.957 176.841 10.4186 179.618 -3.87951e-006 -1.63168e-006 0.197804 -20.3057 68.1973 19.7152 8.13504 25.2327 -3.48712 -179.115 1.38095 -1.73269 4.54188e-006 -4.6773e-006 -1.13133 -1.76478 -13.8996 0.639278 3.07229e-007 -1.92166e-007 -0.351158 23.7995 72.7187 -24.5865 -8.29347 27.3718 3.55955 
49.3464 84.22 37.3653 -0.364408 -0.736169 -3.12571 -0.214485 -1.71033 -0.0729124 -0.429005 0.582348 -0.126195 -0.427711 2.22739 -0.11906 6.61815 11.7806 -2.94817 -2.55513 7.10795 -0.946301 71.8606 -2.7952 -2.79711 103.364 17.1095 8.88568 -1.56411e-006 3.4946e-007 8.63932e-006 10.461 6.54113 -1.04686 -7.60269e-006 -8.88278e-007 -3 8.0289 -4.95145 0.697695 -62.2476 -8.25376 5.19304 -112.676 10.0269 -15.8536 5.56597e-015 3.18055e-015 -6.36111e-015 -1.04994 14.3588 0.614166 -7.23787e-006 -3.2297e-007 3 -8.03011 -4.95139 -0.697647 179.489 5.60133 0.661607 -180 7.01555e-015 178.957 176.831 10.4564 179.621 -3.87951e-006 -1.63168e-006 0.198955 -20.3364 68.2173 19.7333 8.13504 25.2327 -3.48712 -179.116 1.40364 -1.72778 4.54188e-006 -4.6773e-006 -1.13126 -1.76545 -13.9005 0.639877 3.07229e-007 -1.92166e-007 -0.351158 23.8025 72.7182 -24.5869 -8.2929 27.3643 3.55831 
49.3518 84.2256 37.356 -0.363937 -0.722293 -3.1273 -0.21488 -1.7106 -0.0731214 -0.429559 0.581813 -0.126979 -0.428255 2.22686 -0.119835 6.62265 11.8216 -2.95969 -2.53165 7.1025 -0.953834 71.8433 -2.78461 -2.79065 103.378 17.0321 8.98674 -1.56411e-006 3.4946e-007 8.63932e-006 10.3937 6.4786 -1.04087 -7.60269e-006 -8.88278e-007 -3 8.0289 -4.95145 0.697695 -62.2502 -8.25632 5.19459 -112.685 9.98273 -15.9381 -2.78299e-015 1.59028e-015 -0 -0.984931 14.2856 0.60523 -7.23787e-006 -3.2297e-007 3 -8.03011 -4.95139 -0.697647 179.493 5.65285 0.65993 -180 7.01555e-015 178.958 176.82 10.4944 179.624 -3.87951e-006 -1.63168e-006 0.20011 -20.3671 68.2374 19.7514 8.13504 25.2327 -3.48712 -179.118 1.42631 -1.72289 4.54188e-006 -4.6773e-006 -1.13118 -1.76616 -13.9013 0.640471 3.07229e-007 -1.92166e-007 -0.351158 23.8055 72.7177 -24.5873 -8.29232 27.3567 3.55707 
49.3541 84.2277 37.3414 -0.363478 -0.708394 -3.12894 -0.215277 -1.71086 -0.0733321 -0.43012 0.581293 -0.127761 -0.428808 2.22634 -0.120608 6.62733 11.8627 -2.97143 -2.50805 7.09682 -0.961531 71.8262 -2.77418 -2.78427 103.393 16.9546 9.08731 -1.56411e-006 3.4946e-007 8.63932e-006 10.3269 6.4165 -1.03493 -7.60269e-006 -8.88278e-007 -3 8.0289 -4.95145 0.697695 -62.2525 -8.25903 5.19622 -112.693 9.93846 -16.022 7.15625e-015 4.77083e-015 -0 -0.920418 14.2125 0.596364 -7.23787e-006 -3.2297e-007 3 -8.03011 -4.95139 -0.697647 179.496 5.70417 0.658214 -180 7.01555e-015 178.958 176.81 10.5321 179.627 -3.87951e-006 -1.63168e-006 0.201257 -20.3977 68.2573 19.7694 8.13504 25.2327 -3.48712 -179.119 1.44902 -1.71796 4.54188e-006 -4.6773e-006 -1.1311 -1.7668 -13.9021 0.641076 3.07229e-007 -1.92166e-007 -0.351158 23.8083 72.7172 -24.5877 -8.29175 27.3491 3.55584 
49.3555 84.226 37.3348 -0.363049 -0.694433 -3.13068 -0.215681 -1.7111 -0.073547 -0.430703 0.580809 -0.128539 -0.429381 2.22586 -0.121377 6.63237 11.9037 -2.9837 -2.4841 7.09057 -0.969641 71.8093 -2.76414 -2.77811 103.407 16.8771 9.18673 -1.56411e-006 3.4946e-007 8.63932e-006 10.261 6.35547 -1.02909 -7.60269e-006 -8.88278e-007 -3 8.0289 -4.95145 0.697695 -62.2544 -8.26211 5.19806 -112.703 9.89395 -16.1047 -6.36111e-015 -3.18055e-015 -3.18055e-015 -0.8571 14.1397 0.587664 -7.23787e-006 -3.2297e-007 3 -8.03011 -4.95139 -0.697647 179.5 5.75497 0.656394 -180 7.01555e-015 178.959 176.8 10.5689 179.631 -3.87951e-006 -1.63168e-006 0.202383 -20.4277 68.2769 19.7871 8.13504 25.2327 -3.48712 -179.12 1.47184 -1.71291 4.54188e-006 -4.6773e-006 -1.13101 -1.76728 -13.9029 0.641709 3.07229e-007 -1.92166e-007 -0.351158 23.8109 72.7165 -24.5878 -8.2912 27.3417 3.55463 
49.3435 84.2302 37.3147 -0.362671 -0.680375 -3.13257 -0.216097 -1.71132 -0.0737689 -0.431319 0.580383 -0.129311 -0.429988 2.22543 -0.122139 6.63802 11.9448 -2.99683 -2.45962 7.08339 -0.978412 71.7929 -2.75472 -2.77228 103.421 16.7996 9.28438 -1.56411e-006 3.4946e-007 8.63932e-006 10.1965 6.29616 -1.02343 -7.60269e-006 -8.88278e-007 -3 8.0289 -4.95145 0.697695 -62.2555 -8.2658 5.20025 -112.713 9.84906 -16.1852 -7.55382e-015 -4.77083e-015 -3.18055e-015 -0.79568 14.0675 0.579225 -7.23787e-006 -3.2297e-007 3 -8.03011 -4.95139 -0.697647 179.503 5.80496 0.65441 -180 7.01555e-015 178.96 176.79 10.6043 179.634 -3.87951e-006 -1.63168e-006 0.203477 -20.4568 68.2958 19.8043 8.13504 25.2327 -3.48712 -179.122 1.49485 -1.70767 4.54188e-006 -4.6773e-006 -1.13091 -1.7675 -13.9038 0.642388 3.07229e-007 -1.92166e-007 -0.351158 23.8128 72.7156 -24.5875 -8.29065 27.3345 3.55346 
49.3445 84.2085 37.3025 -0.362362 -0.666183 -3.13468 -0.216528 -1.71149 -0.0740002 -0.431982 0.580038 -0.130074 -0.430642 2.22508 -0.122891 6.64447 11.986 -3.01113 -2.4344 7.07494 -0.98809 71.7772 -2.74617 -2.76692 103.435 16.722 9.37962 -1.56411e-006 3.4946e-007 8.63932e-006 10.134 6.23922 -1.018 -7.60269e-006 -8.88278e-007 -3 8.0289 -4.95145 0.697695 -62.2555 -8.27031 5.2029 -112.725 9.80364 -16.2629 -1.51076e-014 -6.36111e-015 -6.36111e-015 -0.736857 13.9961 0.571142 -7.23787e-006 -3.2297e-007 3 -8.03011 -4.95139 -0.697647 179.506 5.85381 0.6522 -180 7.01555e-015 178.96 176.78 10.6379 179.637 -3.87951e-006 -1.63168e-006 0.204526 -20.4847 68.3139 19.8206 8.13504 25.2327 -3.48712 -179.123 1.51811 -1.70218 4.54188e-006 -4.6773e-006 -1.1308 -1.76736 -13.9046 0.643128 3.07229e-007 -1.92166e-007 -0.351158 23.8139 72.7143 -24.5867 -8.29013 27.3276 3.55235 
49.3425 84.2145 37.2949 -0.36214 -0.651819 -3.13706 -0.216978 -1.71161 -0.0742434 -0.432703 0.579794 -0.130825 -0.431355 2.22484 -0.123631 6.65197 12.0271 -3.02693 -2.40823 7.06487 -0.998924 71.7623 -2.7387 -2.76215 103.448 16.6444 9.4718 -1.56411e-006 3.4946e-007 8.63932e-006 10.074 6.1853 -1.01286 -7.60269e-006 -8.88278e-007 -3 8.0289 -4.95145 0.697695 -62.2542 -8.27588 5.20616 -112.738 9.75753 -16.3368 5.1684e-015 1.59028e-015 -0 -0.681334 13.9256 0.56351 -7.23787e-006 -3.2297e-007 3 -8.03011 -4.95139 -0.697647 179.51 5.90123 0.649703 -180 7.01555e-015 178.961 176.771 10.669 179.639 -3.87951e-006 -1.63168e-006 0.205518 -20.5108 68.3308 19.836 8.13504 25.2327 -3.48712 -179.125 1.54168 -1.69636 4.54188e-006 -4.6773e-006 -1.13065 -1.76677 -13.9055 0.643948 3.07229e-007 -1.92166e-007 -0.351158 23.8141 72.7126 -24.5853 -8.28964 27.321 3.55131 
